<svg width="14" height="12" viewBox="0 0 14 12" fill="none" xmlns="http://www.w3.org/2000/svg">
<path d="M12.7881 3.80469V5.70703C12.7881 7.38792 12.1861 8.96867 11.0928 10.1572C9.99952 11.3456 8.54602 12 7 12C5.45398 12 4.00048 11.3456 2.90723 10.1572C1.81394 8.96867 1.21191 7.38792 1.21191 5.70703V3.80469H12.7881ZM7 4.68262C5.58983 4.68262 4.44261 5.92989 4.44238 7.46289C4.44238 8.9961 5.58969 10.2441 7 10.2441C8.41031 10.2441 9.55762 8.9961 9.55762 7.46289C9.55739 5.92989 8.41017 4.68262 7 4.68262ZM7 5.56055C7.96482 5.56055 8.74978 6.41404 8.75 7.46289C8.75 8.51194 7.96496 9.36621 7 9.36621C6.03504 9.36621 5.25 8.51194 5.25 7.46289C5.25022 6.41404 6.03518 5.56055 7 5.56055ZM7 6.55566C6.53991 6.55566 6.16526 6.9628 6.16504 7.46289C6.16504 7.96319 6.53978 8.37109 7 8.37109C7.46022 8.37109 7.83496 7.96319 7.83496 7.46289C7.83474 6.9628 7.46009 6.55566 7 6.55566ZM13.5957 0C13.8187 0 13.9999 0.196129 14 0.438477V2.92676H0V0.438477C0.000111373 0.196129 0.18135 0 0.404297 0H13.5957ZM9.69238 1.46289C9.46937 1.46289 9.28809 1.65989 9.28809 1.90234C9.28817 2.14472 9.46939 2.34082 9.69238 2.34082H10.2305C10.4534 2.34082 10.6347 2.14472 10.6348 1.90234C10.6348 1.65989 10.4535 1.46289 10.2305 1.46289H9.69238ZM11.3076 1.46289C11.0846 1.46294 10.9043 1.65993 10.9043 1.90234C10.9044 2.14468 11.0847 2.34077 11.3076 2.34082H11.8457C12.0687 2.34082 12.2499 2.14472 12.25 1.90234C12.25 1.65989 12.0687 1.46289 11.8457 1.46289H11.3076Z" fill="white" fill-opacity="0.5"/>
</svg>
