<svg width="16" height="10" viewBox="0 0 16 10" fill="none" xmlns="http://www.w3.org/2000/svg">
<path d="M0.266666 4C0.366666 3.84375 1.35367 3.44406 1.35367 3.44406C1.182 3.36094 1.06467 3.34375 1.06467 3C1.06467 2.625 1.06667 2.5 1.33333 2.5H2.238C2.24167 2.4925 2.24567 2.48469 2.24933 2.47687C2.83333 1.28125 2.91167 0.979062 3.78267 0.572187C4.951 0.0274999 7.14133 0 8 0C8.85867 0 11.049 0.0274999 12.2163 0.572187C13.0883 0.978437 13.0667 1.1875 13.7497 2.47687C13.7497 2.48031 13.7567 2.48937 13.763 2.5H14.6687C14.9333 2.5 14.9353 2.625 14.9353 3C14.9353 3.34375 14.818 3.36094 14.6463 3.44406C14.6463 3.44406 15.6 3.875 15.7333 4C15.8667 4.125 16 5 16 6.5C16 8 15.8667 9.5 15.8667 9.5H15.4687C15.4687 9.9375 15.4 10 15.2 10H12.5333C12.3333 10 12.2667 9.9375 12.2667 9.5H3.73333C3.73333 9.9375 3.66667 10 3.46667 10H0.733333C0.599999 10 0.533333 9.90625 0.533333 9.5H0.133333C0.133333 9.5 -8.34465e-07 7.96875 -8.34465e-07 6.5C-8.34465e-07 5.03125 0.166666 4.15625 0.266666 4ZM12.358 5.40437C12.9651 5.4666 13.5753 5.49852 14.186 5.5C14.8667 5.5 14.89 5.54094 14.938 5.1425C14.9561 4.96013 14.9503 4.77638 14.921 4.59531L14.9 4.5H14.8C14.4 4.5 14.0243 4.51594 13.315 4.71187C12.9542 4.81336 12.6149 4.97259 12.312 5.1825C12.1667 5.28125 12.1333 5.375 12.1333 5.375L12.358 5.40437ZM4.11933 7.65437L4.26667 8H11.7333C11.7333 8 11.7203 7.98094 11.9 7.65062C12.0333 7.40625 11.8667 7.25 11.603 7.16125C11.0923 6.98875 9.6 6.5 8 6.5C6.4 6.5 4.878 6.92125 4.38333 7.16125C4.2 7.25 3.97233 7.3125 4.11933 7.65625V7.65437ZM12.686 3.38781C12.7937 3.39363 12.9016 3.39437 13.0093 3.39C12.9223 3.245 12.874 3.08344 12.789 2.91469C12.5223 2.38344 12.2173 1.78219 11.6743 1.52875C10.8897 1.1625 9.26333 0.9975 8 0.9975C6.73667 0.9975 5.11033 1.16125 4.32567 1.52875C3.78267 1.78219 3.479 2.38375 3.211 2.91469C3.12533 3.085 3.07767 3.24781 2.98833 3.39375C3.055 3.39719 3.13167 3.39375 3.31467 3.38781H12.686ZM1.09533 5.14125C1.16667 5.53125 1.1 5.5 1.814 5.5C2.42471 5.49852 3.0349 5.4666 3.642 5.40437C3.737 5.38844 3.764 5.23813 3.688 5.1825C3.38664 4.97026 3.04685 4.81082 2.685 4.71187C1.97567 4.51594 1.57633 4.48969 1.182 4.50281C1.15551 4.50376 1.13034 4.51386 1.11132 4.53117C1.0923 4.54848 1.08079 4.57177 1.079 4.59656C1.06014 4.77847 1.06563 4.96187 1.09533 5.1425V5.14125Z" fill="white"/>
</svg>
