<svg width="26" height="26" viewBox="0 0 26 26" fill="none" xmlns="http://www.w3.org/2000/svg">
<circle cx="13" cy="13" r="12.25" fill="black" fill-opacity="0.5" stroke="#E7434F" stroke-width="0.5"/>
<path fill-rule="evenodd" clip-rule="evenodd" d="M10.7147 8C10.1275 8 9.58754 8.30927 9.30786 8.80571L7.19313 12.5597C7.06638 12.7847 7 13.0365 7 13.2924V16.4615C7 17.3112 7.71634 18 8.6 18H17.4C18.2837 18 19 17.3112 19 16.4615V9.53846C19 8.68879 18.2837 8 17.4 8H10.7147ZM18.0804 12.6154H11.3618H8.07158L10.0113 9.1721C10.1511 8.92387 10.4211 8.76923 10.7147 8.76923H17.4C17.8418 8.76923 18.2 9.11363 18.2 9.53846V9.9366L18.0804 12.6154ZM16.8 14.9231C17.0209 14.9231 17.2 14.7509 17.2 14.5385C17.2 14.326 17.0209 14.1538 16.8 14.1538H15.2C14.9791 14.1538 14.8 14.326 14.8 14.5385C14.8 14.7509 14.9791 14.9231 15.2 14.9231H16.8Z" fill="#E7434F"/>
</svg>
