<svg width="26" height="26" viewBox="0 0 26 26" fill="none" xmlns="http://www.w3.org/2000/svg">
<circle cx="13" cy="13" r="12.25" fill="black" fill-opacity="0.5" stroke="#E7434F" stroke-width="0.5"/>
<path d="M9.07324 17.6699C10.5626 18.1392 13.5132 18.7811 18.8223 18.9756L18.833 18.9854C18.8859 19.0319 18.9283 19.0883 18.957 19.1514C18.9857 19.2144 19.0004 19.2828 19 19.3516V19.749C19 19.8152 18.9726 19.8789 18.9238 19.9258C18.8749 19.9727 18.8084 19.999 18.7393 19.999H17.9932C17.8052 19.9994 17.6174 19.9896 17.4307 19.9688L9.9248 19.1455C9.59551 18.679 9.31052 18.1852 9.07324 17.6699ZM9.07324 8.3291C9.31065 7.8139 9.59575 7.32016 9.9248 6.85352L17.4316 6.03027C17.6179 6.00933 17.8057 5.99954 17.9932 6H18.7393C18.8084 6.00001 18.8749 6.02637 18.9238 6.07324C18.9726 6.1201 19 6.18383 19 6.25V6.64746C19.0004 6.7163 18.9858 6.78456 18.957 6.84766C18.9283 6.91072 18.8859 6.96717 18.833 7.01367L18.8223 7.02344C13.5131 7.21793 10.5626 7.85986 9.07324 8.3291ZM8.0918 12C8.18314 10.9567 8.42321 9.9296 8.80664 8.94922C9.84332 8.57597 12.6404 7.79367 18.2988 7.54492C17.487 8.45692 16.3916 10.203 16.3916 13C16.3917 15.7964 17.4868 17.5416 18.2988 18.4531C12.6416 18.2044 9.84383 17.4225 8.80664 17.0498C8.42327 16.0696 8.18317 15.0431 8.0918 14H15.0869C15.2945 14 15.4939 13.9209 15.6406 13.7803C15.7873 13.6397 15.869 13.4488 15.8691 13.25V12.75C15.8691 12.5513 15.7872 12.3603 15.6406 12.2197C15.4939 12.0791 15.2945 12 15.0869 12H8.0918ZM8.05762 12.5H15.0869C15.1561 12.5 15.2226 12.5264 15.2715 12.5732C15.3202 12.6201 15.3477 12.6838 15.3477 12.75V13.25C15.3475 13.3161 15.3203 13.38 15.2715 13.4268C15.2226 13.4735 15.156 13.5 15.0869 13.5H8.05762C8.05032 13.3356 8.04396 13.1701 8.04395 13C8.04395 12.8299 8.05032 12.6644 8.05762 12.5ZM7 13C7 11.2207 7.41531 9.46383 8.21582 7.8584C8.41876 7.45338 8.77816 7.13949 9.21777 6.9834C8.09655 8.80521 7.50998 10.884 7.52148 12.999C7.50927 15.1145 8.0954 17.1944 9.2168 19.0166C8.77737 18.8605 8.41838 18.5466 8.21582 18.1416C7.4153 16.5362 7.00002 14.7793 7 13Z" fill="#E7434F"/>
</svg>
