<svg width="26" height="26" viewBox="0 0 26 26" fill="none" xmlns="http://www.w3.org/2000/svg">
<circle cx="13" cy="13" r="12.25" fill="black" fill-opacity="0.5" stroke="#E7434F" stroke-width="0.5"/>
<path fill-rule="evenodd" clip-rule="evenodd" d="M10.7147 18C10.1275 18 9.58754 17.6907 9.30786 17.1943L7.19313 13.4403C7.06638 13.2153 7 12.9635 7 12.7076V9.53846C7 8.68879 7.71634 8 8.6 8H17.4C18.2837 8 19 8.68879 19 9.53846V16.4615C19 17.3112 18.2837 18 17.4 18H10.7147ZM18.0804 13.3846H11.3618H8.07158L10.0113 16.8279C10.1511 17.0761 10.4211 17.2308 10.7147 17.2308H17.4C17.8418 17.2308 18.2 16.8864 18.2 16.4615V16.0634L18.0804 13.3846ZM16.8 11.0769C17.0209 11.0769 17.2 11.2491 17.2 11.4615C17.2 11.674 17.0209 11.8462 16.8 11.8462H15.2C14.9791 11.8462 14.8 11.674 14.8 11.4615C14.8 11.2491 14.9791 11.0769 15.2 11.0769H16.8Z" fill="#E7434F"/>
</svg>
