<svg width="26" height="26" viewBox="0 0 26 26" fill="none" xmlns="http://www.w3.org/2000/svg">
<circle cx="13" cy="13" r="12.25" fill="black" fill-opacity="0.5" stroke="#E7434F" stroke-width="0.5"/>
<path d="M15.407 13.2174C13.8782 13.2158 12.3834 13.6914 11.1121 14.5837C10.6105 14.9343 10.1991 15.4099 9.91484 15.968C9.63055 16.5262 9.48213 17.1496 9.4828 17.7826V18H16.6509C17.1311 17.9998 17.5934 17.8087 17.9451 17.4653C18.2968 17.1218 18.5118 16.6513 18.5471 16.1481L18.7382 13.2174H15.407ZM16.4568 15.1102L15.2154 16.4146C15.1962 16.4348 15.1734 16.4508 15.1483 16.4617C15.1232 16.4726 15.0963 16.4783 15.0691 16.4783C15.0419 16.4783 15.015 16.4726 14.9899 16.4617C14.9648 16.4508 14.942 16.4348 14.9228 16.4146L13.6814 15.1102C13.6437 15.0692 13.6229 15.0143 13.6233 14.9573C13.6238 14.9003 13.6456 14.8458 13.6839 14.8055C13.7223 14.7652 13.7742 14.7423 13.8284 14.7418C13.8827 14.7413 13.9349 14.7632 13.974 14.8028L15.0691 15.9535L16.1642 14.8028C16.2032 14.7632 16.2555 14.7413 16.3097 14.7418C16.364 14.7423 16.4159 14.7652 16.4542 14.8055C16.4926 14.8458 16.5144 14.9003 16.5148 14.9573C16.5153 15.0143 16.4945 15.0692 16.4568 15.1102ZM18.7023 8.37142C18.5978 8.25433 18.4716 8.16098 18.3315 8.0971C18.1913 8.03322 18.0402 8.00018 17.8874 8.00001H15.0339C13.9219 7.99811 12.823 8.25167 11.8141 8.74295C10.8052 9.23422 9.91073 9.95133 9.19334 10.844L7.50897 12.9395C7.18055 13.3484 7.00027 13.8662 7 14.4013V16.913C7.00093 17.2019 7.11084 17.4785 7.30563 17.6823C7.50042 17.886 7.76418 18.0003 8.03905 18H9.069V17.7826C9.06827 17.078 9.23348 16.3841 9.54992 15.7628C9.86637 15.1416 10.3242 14.6122 10.8826 14.222C12.2218 13.2819 13.7965 12.781 15.407 12.7826H18.7666L18.9976 9.24323C19.0076 9.08443 18.9866 8.92516 18.9358 8.77522C18.8851 8.62528 18.8056 8.48786 18.7023 8.37142ZM16.4568 11.1972C16.4376 11.2174 16.4148 11.2334 16.3897 11.2443C16.3646 11.2553 16.3377 11.2609 16.3105 11.2609C16.2833 11.2609 16.2564 11.2553 16.2313 11.2443C16.2062 11.2334 16.1834 11.2174 16.1642 11.1972L15.0691 10.0466L13.974 11.1972C13.9349 11.2368 13.8827 11.2587 13.8284 11.2582C13.7742 11.2577 13.7223 11.2348 13.6839 11.1945C13.6456 11.1542 13.6238 11.0997 13.6233 11.0427C13.6229 10.9857 13.6437 10.9308 13.6814 10.8898L14.9228 9.58544C14.942 9.56525 14.9648 9.54923 14.9899 9.5383C15.015 9.52737 15.0419 9.52174 15.0691 9.52174C15.0963 9.52174 15.1232 9.52737 15.1483 9.5383C15.1734 9.54923 15.1962 9.56525 15.2154 9.58544L16.4568 10.8898C16.476 10.91 16.4912 10.9339 16.5016 10.9603C16.512 10.9867 16.5174 11.0149 16.5174 11.0435C16.5174 11.072 16.512 11.1003 16.5016 11.1267C16.4912 11.153 16.476 11.177 16.4568 11.1972Z" fill="#E7434F"/>
</svg>
