<svg width="28" height="28" viewBox="0 0 28 28" fill="none" xmlns="http://www.w3.org/2000/svg">
<rect width="28" height="28" rx="5" fill="white" fill-opacity="0.06"/>
<path fill-rule="evenodd" clip-rule="evenodd" d="M10 8.6C10 8.26863 10.2558 8 10.5714 8H11.7143C12.0299 8 12.2857 8.26863 12.2857 8.6V19.4C12.2857 19.7314 12.0299 20 11.7143 20H10.5714C10.4199 20 10.2745 19.9368 10.1674 19.8243C10.0602 19.7117 10 19.5591 10 19.4L10 8.6ZM15.7143 8.6C15.7143 8.26863 15.9701 8 16.2857 8H17.4286C17.5801 8 17.7255 8.06321 17.8326 8.17574C17.9398 8.28826 18 8.44087 18 8.6L18 19.4C18 19.7314 17.7442 20 17.4286 20H16.2857C15.9701 20 15.7143 19.7314 15.7143 19.4V8.6Z" fill="white" fill-opacity="0.5"/>
</svg>
