<svg width="26" height="26" viewBox="0 0 26 26" fill="none" xmlns="http://www.w3.org/2000/svg">
<circle cx="13" cy="13" r="12.25" fill="black" fill-opacity="0.5"/>
<circle cx="13" cy="13" r="12.25" fill="#43E748" fill-opacity="0.2"/>
<circle cx="13" cy="13" r="12.25" stroke="#43E748" stroke-width="0.5"/>
<path fill-rule="evenodd" clip-rule="evenodd" d="M8.6 18C7.71634 18 7 17.3112 7 16.4615V9.53846C7 8.68879 7.71634 8 8.6 8H15.6076C15.8167 8 15.9906 8.15492 16.0064 8.35544C16.0928 9.44731 17.0421 10.3077 18.2 10.3077C18.3155 10.3077 18.4287 10.2992 18.539 10.2828C18.6543 10.2657 18.7717 10.2979 18.8604 10.3709C18.949 10.444 19 10.5507 19 10.6629V12.7076C19 12.9635 18.9336 13.2153 18.8069 13.4403L17.5999 15.5828C16.7609 17.0722 15.1409 18 13.3793 18H8.6ZM14.835 13.3846H17.9284L16.8965 15.2165C16.1973 16.4576 14.8473 17.2308 13.3793 17.2308H8.6C8.15817 17.2308 7.8 16.8864 7.8 16.4615V16.0634V13.3846H14.835ZM14 11.0769C13.7791 11.0769 13.6 11.2491 13.6 11.4615C13.6 11.674 13.7791 11.8462 14 11.8462H15.6C15.8209 11.8462 16 11.674 16 11.4615C16 11.2491 15.8209 11.0769 15.6 11.0769H14Z" fill="#43E748"/>
</svg>
