<svg width="26" height="26" viewBox="0 0 26 26" fill="none" xmlns="http://www.w3.org/2000/svg">
<circle cx="13" cy="13" r="12.25" fill="black" fill-opacity="0.5" stroke="#E7434F" stroke-width="0.5"/>
<g clip-path="url(#clip0_35_178)">
<path d="M8.83449 17.5294H-0.48312C-0.48312 15.4827 -2.18968 13.8235 -4.29488 13.8235C-6.40009 13.8235 -8.10665 15.4827 -8.10665 17.5294H-8.95372C-9.42155 17.5294 -9.80078 17.1607 -9.80078 16.7059V12.1765C-9.80078 11.7666 -9.49079 11.4192 -9.07353 11.3612L-3.47088 10.583L0.131861 6.30201C0.292736 6.11082 0.53337 5.99997 0.787451 5.99997H10.5286C10.8181 5.99997 11.0877 6.1438 11.2432 6.38136L13.3029 9.52806L15.7531 5.95491C15.9517 5.66534 16.316 5.52835 16.6633 5.61278L18.3575 6.02452C18.8113 6.13483 19.0872 6.58195 18.9738 7.02322C18.8603 7.46444 18.4004 7.73274 17.9466 7.62243L16.8316 7.3514L14.6525 10.5293H18.1522C18.62 10.5293 18.9992 10.898 18.9992 11.3529V16.7058C18.9992 17.1606 18.62 17.5293 18.1522 17.5293H16.458C16.458 15.4826 14.7515 13.8234 12.6463 13.8234C10.5411 13.8234 8.83449 15.4827 8.83449 17.5294ZM-1.23681 10.5294H11.9502L10.0636 7.64709H1.18885L-1.23681 10.5294ZM-4.29488 20.4118C-5.9322 20.4118 -7.25958 19.1213 -7.25958 17.5294C-7.25958 15.9375 -5.93226 14.6471 -4.29488 14.6471C-2.65757 14.6471 -1.33018 15.9375 -1.33018 17.5294C-1.33018 19.1213 -2.65751 20.4118 -4.29488 20.4118ZM-4.29488 18.7647C-3.59317 18.7647 -3.02432 18.2116 -3.02432 17.5294C-3.02432 16.8472 -3.59317 16.2941 -4.29488 16.2941C-4.9966 16.2941 -5.56545 16.8472 -5.56545 17.5294C-5.56545 18.2116 -4.9966 18.7647 -4.29488 18.7647ZM12.6463 20.4118C11.0089 20.4118 9.68156 19.1213 9.68156 17.5294C9.68156 15.9375 11.0089 14.6471 12.6463 14.6471C14.2836 14.6471 15.611 15.9375 15.611 17.5294C15.611 19.1213 14.2836 20.4118 12.6463 20.4118ZM12.6463 18.7647C13.348 18.7647 13.9168 18.2116 13.9168 17.5294C13.9168 16.8472 13.348 16.2941 12.6463 16.2941C11.9445 16.2941 11.3757 16.8472 11.3757 17.5294C11.3757 18.2116 11.9445 18.7647 12.6463 18.7647Z" fill="#E7434F"/>
</g>
<defs>
<clipPath id="clip0_35_178">
<rect width="12" height="16" fill="white" transform="translate(7 5)"/>
</clipPath>
</defs>
</svg>
