<svg width="26" height="26" viewBox="0 0 26 26" fill="none" xmlns="http://www.w3.org/2000/svg">
<circle cx="13" cy="13" r="12.25" fill="black" fill-opacity="0.5" stroke="#E7434F" stroke-width="0.5"/>
<path fill-rule="evenodd" clip-rule="evenodd" d="M8.6 8C7.71634 8 7 8.68879 7 9.53846V16.4615C7 17.3112 7.71634 18 8.6 18H15.6076C15.8167 18 15.9906 17.8451 16.0064 17.6446C16.0928 16.5527 17.0421 15.6923 18.2 15.6923C18.3155 15.6923 18.4287 15.7008 18.539 15.7172C18.6543 15.7343 18.7717 15.7021 18.8604 15.6291C18.949 15.556 19 15.4493 19 15.3371V13.2924C19 13.0365 18.9336 12.7847 18.8069 12.5597L17.5999 10.4172C16.7609 8.92781 15.1409 8 13.3793 8H8.6ZM14.835 12.6154H17.9284L16.8965 10.7835C16.1973 9.5424 14.8473 8.76923 13.3793 8.76923H8.6C8.15817 8.76923 7.8 9.11363 7.8 9.53846V9.9366V12.6154H14.835ZM14 14.9231C13.7791 14.9231 13.6 14.7509 13.6 14.5385C13.6 14.326 13.7791 14.1538 14 14.1538H15.6C15.8209 14.1538 16 14.326 16 14.5385C16 14.7509 15.8209 14.9231 15.6 14.9231H14Z" fill="#E7434F"/>
</svg>
