<svg width="8" height="14" viewBox="0 0 8 14" fill="none" xmlns="http://www.w3.org/2000/svg">
<path d="M4.10557 0.311018L0.14028 6.39737C0.0127746 6.59355 -0.0300177 6.82968 0.0209889 7.05563C0.0719955 7.28159 0.212784 7.47957 0.41346 7.60754L2.61095 9.01317V13.3314C2.61044 13.4763 2.65917 13.6174 2.74974 13.7333C2.84031 13.8492 2.9678 13.9337 3.11289 13.9739C3.25798 14.014 3.41276 14.0078 3.55378 13.956C3.69481 13.9041 3.8144 13.8097 3.89443 13.6868L7.85972 7.60132C7.98723 7.40515 8.03002 7.16901 7.97901 6.94306C7.928 6.71711 7.78722 6.51913 7.58654 6.39116L5.38906 4.98285V0.664648C5.38846 0.520245 5.33906 0.379923 5.24828 0.264752C5.15749 0.14958 5.03021 0.0657754 4.88556 0.0259194C4.7409 -0.0139367 4.58667 -0.00769234 4.44603 0.0437147C4.30539 0.0951218 4.18592 0.188917 4.10557 0.311018Z" fill="white" fill-opacity="0.5"/>
</svg>
