<svg width="12" height="13" viewBox="0 0 12 13" fill="none" xmlns="http://www.w3.org/2000/svg">
<path fill-rule="evenodd" clip-rule="evenodd" d="M6 0.5C2.68629 0.5 0 3.18629 0 6.5C0 9.81371 2.68629 12.5 6 12.5C9.31371 12.5 12 9.81371 12 6.5C12 3.18629 9.31371 0.5 6 0.5ZM6.46154 2.80769C6.46154 2.55279 6.2549 2.34615 6 2.34615C5.7451 2.34615 5.53846 2.55279 5.53846 2.80769V6.5C5.53846 6.7549 5.7451 6.96154 6 6.96154H8.76923C9.02413 6.96154 9.23077 6.7549 9.23077 6.5C9.23077 6.2451 9.02413 6.03846 8.76923 6.03846H6.46154V2.80769Z" fill="white" fill-opacity="0.3"/>
</svg>
