<svg width="16" height="13" viewBox="0 0 16 13" fill="none" xmlns="http://www.w3.org/2000/svg">
<path fill-rule="evenodd" clip-rule="evenodd" d="M2.28571 4.86364C2.28571 2.45367 4.33241 0.5 6.85714 0.5C8.78321 0.5 10.43 1.6366 11.1035 3.24478C11.2103 3.23321 11.3188 3.22727 11.4286 3.22727C13.0065 3.22727 14.2857 4.44831 14.2857 5.95455C14.2857 6.09703 14.2742 6.2372 14.252 6.37417C15.2948 6.93501 16 8.00201 16 9.22727C16 11.0347 14.465 12.5 12.5714 12.5H4C1.79086 12.5 0 10.7905 0 8.68182C0 7.15225 0.941919 5.83385 2.30114 5.22429C2.29092 5.10527 2.28571 4.98499 2.28571 4.86364Z" fill="white"/>
</svg>
