<svg width="20" height="18" viewBox="0 0 20 18" fill="none" xmlns="http://www.w3.org/2000/svg">
<path d="M8.24902 1.11133C9.00888 -0.270221 10.9941 -0.270223 11.7539 1.11133L19.3711 14.9609C20.1041 16.2937 19.1401 17.9245 17.6191 17.9248H2.38379C0.862617 17.9248 -0.101254 16.2938 0.631836 14.9609L8.24902 1.11133ZM10.4414 2.81738C10.2526 2.46685 9.74935 2.46685 9.56055 2.81738L2.89844 15.1875C2.71908 15.5205 2.95975 15.9245 3.33789 15.9248H16.6641C17.0423 15.9247 17.2839 15.5206 17.1045 15.1875L10.4414 2.81738Z" fill="white" fill-opacity="0.5"/>
<path d="M9.5625 4.80481C9.752 4.4574 10.2509 4.45744 10.4404 4.80481L15.5986 14.2609C15.7801 14.594 15.5386 15.0001 15.1592 15.0001H4.84375C4.46444 14.9999 4.2237 14.5939 4.40527 14.2609L9.5625 4.80481ZM10.1777 7.32727C10.1022 7.18703 9.90071 7.18703 9.8252 7.32727L6.66016 13.2052C6.58847 13.3384 6.68474 13.5 6.83594 13.5001H13.166C13.3173 13.5001 13.4144 13.3384 13.3428 13.2052L10.1777 7.32727Z" fill="white" fill-opacity="0.5"/>
</svg>
