<svg width="12" height="10" viewBox="0 0 12 10" fill="none" xmlns="http://www.w3.org/2000/svg">
<path d="M11.8409 4.78282L10.4944 3.74937C10.4348 3.7035 10.3637 3.67542 10.2891 3.6683C10.2145 3.66119 10.1395 3.67533 10.0725 3.70911C10.0054 3.74275 9.94904 3.79465 9.90961 3.85896C9.87018 3.92326 9.8493 3.99742 9.84933 4.07308V4.70543H9.45101V4.06634C9.45101 3.84187 9.27101 3.65986 9.04903 3.65986H8.24874V2.15064C8.24874 1.92613 8.0687 1.74416 7.84672 1.74416H6.59634V1.31279H6.93294C7.15496 1.31279 7.335 1.13079 7.335 0.906356C7.335 0.681921 7.15496 0.5 6.93294 0.5H4.33572C4.11374 0.5 3.9337 0.681921 3.9337 0.906356C3.9337 1.13079 4.11374 1.31279 4.33572 1.31279H4.67256V1.74416H3.11837C2.89636 1.74416 2.71631 1.92613 2.71631 2.15064V2.94393H1.93118C1.70912 2.94393 1.52912 3.12589 1.52912 3.35032V4.28002H0.803993V3.12692C0.803993 2.90248 0.623991 2.72052 0.401976 2.72052C0.179961 2.72048 0 2.90248 0 3.12687V7.37773C0 7.60217 0.179961 7.78409 0.402017 7.78409C0.624032 7.78409 0.804033 7.60213 0.804033 7.37773V6.22459H1.5292V7.17766C1.5292 7.40213 1.7092 7.58405 1.93126 7.58405H2.94223L4.36059 9.34983C4.39828 9.39674 4.44586 9.43456 4.49984 9.46054C4.55382 9.48651 4.61285 9.5 4.67264 9.5H9.04911C9.27113 9.5 9.45109 9.31796 9.45109 9.09356V8.55659H9.84941V9.09356C9.84942 9.17128 9.87146 9.24737 9.91293 9.31281C9.95439 9.37826 10.0135 9.43032 10.0834 9.46283C10.1533 9.49529 10.2309 9.50681 10.307 9.49605C10.3832 9.48528 10.4547 9.45267 10.5131 9.40208L11.8597 8.23538C11.9037 8.1972 11.939 8.14986 11.9633 8.09658C11.9875 8.04331 12 7.98537 12 7.92674V5.1064C11.9999 5.04372 11.9855 4.98191 11.958 4.92578C11.9304 4.86964 11.8903 4.82072 11.8409 4.78282Z" fill="#43E748"/>
</svg>
