<svg width="12" height="12" viewBox="0 0 12 12" fill="none" xmlns="http://www.w3.org/2000/svg">
<path d="M6 0C6.2549 0 6.46154 0.206638 6.46154 0.461538V1.84615C6.46154 2.10105 6.2549 2.30769 6 2.30769C5.7451 2.30769 5.53846 2.10105 5.53846 1.84615V0.461538C5.53846 0.206638 5.7451 0 6 0Z" fill="#43E748"/>
<path d="M3.23077 6C3.23077 4.4706 4.4706 3.23077 6 3.23077C7.5294 3.23077 8.76923 4.4706 8.76923 6C8.76923 7.5294 7.5294 8.76923 6 8.76923C4.4706 8.76923 3.23077 7.5294 3.23077 6Z" fill="#43E748"/>
<path d="M10.2427 2.41005C10.4229 2.22981 10.4229 1.93758 10.2427 1.75734C10.0624 1.5771 9.7702 1.5771 9.58996 1.75734L8.61089 2.73641C8.43065 2.91665 8.43065 3.20888 8.61089 3.38913C8.79113 3.56937 9.08336 3.56937 9.2636 3.38913L10.2427 2.41005Z" fill="#43E748"/>
<path d="M12 6C12 6.2549 11.7934 6.46154 11.5385 6.46154H10.1538C9.89895 6.46154 9.69231 6.2549 9.69231 6C9.69231 5.7451 9.89895 5.53846 10.1538 5.53846H11.5385C11.7934 5.53846 12 5.7451 12 6Z" fill="#43E748"/>
<path d="M9.58989 10.2426C9.77013 10.4229 10.0624 10.4229 10.2426 10.2426C10.4228 10.0624 10.4228 9.77015 10.2426 9.5899L9.26353 8.61083C9.08329 8.43059 8.79106 8.43059 8.61082 8.61083C8.43058 8.79107 8.43058 9.0833 8.61082 9.26355L9.58989 10.2426Z" fill="#43E748"/>
<path d="M6 9.69231C6.2549 9.69231 6.46154 9.89895 6.46154 10.1538V11.5385C6.46154 11.7934 6.2549 12 6 12C5.7451 12 5.53846 11.7934 5.53846 11.5385V10.1538C5.53846 9.89895 5.7451 9.69231 6 9.69231Z" fill="#43E748"/>
<path d="M3.38923 9.26355C3.56947 9.08331 3.56947 8.79108 3.38923 8.61084C3.20899 8.43059 2.91676 8.43059 2.73652 8.61084L1.75745 9.58991C1.57721 9.77015 1.57721 10.0624 1.75745 10.2426C1.93769 10.4229 2.22992 10.4229 2.41016 10.2426L3.38923 9.26355Z" fill="#43E748"/>
<path d="M2.30769 6C2.30769 6.2549 2.10105 6.46154 1.84615 6.46154H0.461538C0.206638 6.46154 0 6.2549 0 6C2.75098e-08 5.7451 0.206638 5.53846 0.461538 5.53846H1.84615C2.10105 5.53846 2.30769 5.7451 2.30769 6Z" fill="#43E748"/>
<path d="M2.73645 3.38912C2.91669 3.56936 3.20892 3.56936 3.38916 3.38912C3.5694 3.20888 3.5694 2.91665 3.38916 2.73641L2.41009 1.75733C2.22985 1.57709 1.93762 1.57709 1.75738 1.75733C1.57714 1.93758 1.57714 2.22981 1.75738 2.41005L2.73645 3.38912Z" fill="#43E748"/>
</svg>
