<svg width="12" height="10" viewBox="0 0 12 10" fill="none" xmlns="http://www.w3.org/2000/svg">
<path d="M9.6495 2.12438L11.7589 1.4101C11.9429 1.34802 12.0425 1.14571 11.981 0.958429C11.9196 0.771833 11.7218 0.669286 11.5364 0.732762L9.42703 1.44705C9.243 1.50912 9.14343 1.71143 9.20489 1.89871C9.26592 2.08471 9.46406 2.18717 9.6495 2.12438ZM9.20489 4.04157C9.26592 4.22755 9.46406 4.33 9.6495 4.26724L11.7589 3.55295C11.9429 3.49088 12.0425 3.28857 11.981 3.10129C11.9665 3.05675 11.9434 3.01558 11.9132 2.98011C11.883 2.94465 11.8462 2.9156 11.8049 2.89464C11.7635 2.87367 11.7186 2.8612 11.6725 2.85793C11.6264 2.85467 11.5802 2.86068 11.5364 2.87562L9.42703 3.5899C9.243 3.652 9.14343 3.85429 9.20489 4.04157ZM9.20489 6.18443C9.26592 6.3704 9.46406 6.47286 9.6495 6.4101L11.7589 5.69581C11.9429 5.63374 12.0425 5.43143 11.981 5.24414C11.9196 5.05686 11.7218 4.955 11.5364 5.01848L9.42703 5.73276C9.243 5.79486 9.14343 5.99714 9.20489 6.18443ZM9.20489 8.32729C9.26592 8.51326 9.46406 8.61571 9.6495 8.55295L11.7589 7.83867C11.9429 7.7766 12.0425 7.57429 11.981 7.387C11.9665 7.34247 11.9434 7.30129 11.9132 7.26583C11.883 7.23037 11.8462 7.20132 11.8049 7.18035C11.7635 7.15938 11.7186 7.14691 11.6725 7.14365C11.6264 7.14038 11.5802 7.14639 11.5364 7.16133L9.42703 7.87562C9.243 7.93771 9.14343 8.14 9.20489 8.32729ZM6.35498 9.759L6.27344 10H7.42888C7.57891 10 7.71248 9.90305 7.76123 9.759C7.79076 9.67181 8.48357 7.59417 8.48357 5C8.48357 2.40583 7.79074 0.32819 7.76123 0.241C7.73742 0.170684 7.6926 0.109671 7.63302 0.0664689C7.57345 0.0232668 7.50208 3.02675e-05 7.42888 0H6.27344L6.35498 0.241C6.38451 0.32819 7.07732 2.40583 7.07732 5C7.07732 7.59417 6.38448 9.67181 6.35498 9.759Z" fill="#43E748"/>
<path d="M5.53081 0H4.92188C2.20791 0 0 2.24295 0 5C0 7.75705 2.20791 10 4.92188 10H5.531L5.69112 9.52671C5.69764 9.50683 6.37503 7.46931 6.37503 5C6.37503 2.53069 5.69764 0.493167 5.69077 0.472952L5.53081 0Z" fill="#43E748"/>
</svg>
