<svg width="10" height="12" viewBox="0 0 10 12" fill="none" xmlns="http://www.w3.org/2000/svg">
<path fill-rule="evenodd" clip-rule="evenodd" d="M5 0C3.24273 0 1.81818 1.34315 1.81818 3V4.71429C0.814028 4.71429 0 5.4818 0 6.42857V10.2857C0 11.2325 0.814028 12 1.81818 12H8.18182C9.18597 12 10 11.2325 10 10.2857V6.42857C10 5.4818 9.18597 4.71429 8.18182 4.71429V3C8.18182 1.34315 6.75727 0 5 0ZM7.27273 4.71429V3C7.27273 1.81653 6.25519 0.857143 5 0.857143C3.74481 0.857143 2.72727 1.81653 2.72727 3V4.71429H7.27273Z" fill="#E7434F"/>
</svg>
