<svg width="14" height="20" viewBox="0 0 14 20" fill="none" xmlns="http://www.w3.org/2000/svg">
<path d="M6.99997 0C3.14026 0 0 3.11866 0 6.95188C0 11.7699 7.00689 20 7.00689 20C7.00689 20 14 11.533 14 6.95188C14 3.11869 10.8599 0 6.99997 0ZM9.11204 8.98744C8.52967 9.56569 7.76491 9.85484 7 9.85484C6.23521 9.85484 5.47021 9.56569 4.88808 8.98744C3.72346 7.83094 3.72346 5.94909 4.88808 4.79247C5.45202 4.23216 6.20214 3.92359 7 3.92359C7.79783 3.92359 8.54785 4.23231 9.11204 4.79247C10.2767 5.94909 10.2767 7.83091 9.11204 8.98744Z" fill="white" fill-opacity="0.5"/>
</svg>
