<svg width="10" height="14" viewBox="0 0 10 14" fill="none" xmlns="http://www.w3.org/2000/svg">
<path d="M9.19003 8.90355C9.63871 8.17548 9.93634 7.25463 9.99409 6.34348C10.0307 5.75866 9.89636 5.14476 9.60539 4.56747C9.14894 3.66062 8.36487 3.15119 7.60746 2.659C7.04218 2.29173 6.50799 1.94493 6.13039 1.44951L6.06265 1.36119C5.83942 1.0704 5.58732 0.740827 5.54734 0.464034C5.50736 0.184009 5.24526 -0.0152393 4.95873 0.000915961C4.81855 0.0101121 4.68722 0.0706338 4.59133 0.170222C4.49545 0.26981 4.44218 0.401019 4.44231 0.537271V10.1335C3.97698 9.85994 3.40392 9.69193 2.77645 9.69193C1.24607 9.69193 0 10.658 0 11.846C0 13.0339 1.24607 14 2.77645 14C4.30682 14 5.55289 13.0339 5.55289 11.846V5.5691C6.38693 5.8782 7.75184 6.66551 8.12721 8.50398C8.05724 8.60414 7.99061 8.71184 7.91287 8.798C7.70963 9.02094 7.73184 9.36128 7.96284 9.5573C8.19162 9.75547 8.54257 9.73178 8.7458 9.50883C8.89462 9.34513 9.02678 9.15342 9.15339 8.95309C9.16671 8.93801 9.17896 8.92186 9.19003 8.90355Z" fill="white" fill-opacity="0.5"/>
</svg>
