<svg width="10" height="12" viewBox="0 0 10 12" fill="none" xmlns="http://www.w3.org/2000/svg">
<path d="M9.16667 9.81821H0.833333C0.373021 9.81821 0 10.1846 0 10.6364C0 11.3896 0.621745 12 1.38885 12H8.61104C9.37815 12 10 11.3896 10 10.6364C10 10.1846 9.62687 9.81821 9.16667 9.81821ZM2.63672 4.89072C2.64505 4.29488 3.14036 3.81665 3.74724 3.81816H6.25273C6.86615 3.81885 7.36318 4.30684 7.36388 4.9091L7.65331 9.27279H8.87451L8.61104 4.36368C8.61003 3.46031 7.86448 2.72831 6.94437 2.72731H6.66667V2.18179H7.22219C7.52888 2.18148 7.7774 1.93749 7.77771 1.63637V1.09095C7.77701 0.488686 7.27997 0.000715911 6.66667 0H3.33333C2.71992 0.000690343 2.22292 0.488686 2.22219 1.09095V1.63637C2.2225 1.93749 2.47102 2.18148 2.77771 2.18179H3.33333V2.72731H3.05552C2.14049 2.72642 1.39628 3.4509 1.38937 4.34929L1.12549 9.27279H2.33318L2.63672 4.89072ZM3.88885 2.18179H6.11104V2.72731H3.88885V2.18179Z" fill="#E7434F"/>
<path d="M6.25326 4.36377H3.74779C3.44107 4.36408 3.19258 4.60807 3.19224 4.90919L2.89062 9.27287H7.09708L6.8093 4.92678C6.81098 4.85383 6.79788 4.78127 6.77074 4.71334C6.74361 4.6454 6.703 4.58344 6.65126 4.53105C6.59952 4.47866 6.53769 4.43689 6.46936 4.40818C6.40104 4.37946 6.32758 4.36436 6.25326 4.36377Z" fill="#E7434F"/>
</svg>
