<svg width="10" height="20" viewBox="0 0 10 20" fill="none" xmlns="http://www.w3.org/2000/svg">
<path d="M5 0C6.84083 0 8.33284 1.49221 8.33301 3.33301V11.2734C9.35594 12.1889 10 13.5192 10 15C10 17.7614 7.76141 20 5 20C2.23859 20 0 17.7614 0 15C0 13.5192 0.644062 12.189 1.66699 11.2734V3.33301C1.66716 1.49221 3.15917 0 5 0ZM5 1.66699C4.07965 1.66701 3.33318 2.4127 3.33301 3.33301V12.0186L2.77832 12.5146C2.07465 13.1445 1.66699 14.0376 1.66699 15C1.66699 16.8409 3.15906 18.333 5 18.333C6.84094 18.333 8.33293 16.8409 8.33301 15C8.33301 14.0376 7.92535 13.1445 7.22168 12.5146L6.66699 12.0186V3.33301C6.66682 2.41264 5.92036 1.66699 5 1.66699ZM5.83301 12.6445C6.80378 12.9878 7.5 13.9116 7.5 15C7.5 16.3807 6.38071 17.5 5 17.5C3.61929 17.5 2.5 16.3807 2.5 15C2.5 13.9116 3.19622 12.9878 4.16699 12.6445V6.66699H5.83301V12.6445Z" fill="white" fill-opacity="0.5"/>
</svg>
